<?xml version="1.0" encoding="UTF-8" standalone="no"?>
<svg
   width="456"
   height="456"
   viewBox="0 0 456 456"
   version="1.1"
   xml:space="preserve"
   style="fill-rule:evenodd;clip-rule:evenodd;stroke-linejoin:round;stroke-miterlimit:2;"
   id="svg10"
   sodipodi:docname="appiconfg.svg"
   inkscape:version="1.2.2 (732a01da63, 2022-12-09)"
   xmlns:inkscape="http://www.inkscape.org/namespaces/inkscape"
   xmlns:sodipodi="http://sodipodi.sourceforge.net/DTD/sodipodi-0.dtd"
   xmlns="http://www.w3.org/2000/svg"
   xmlns:svg="http://www.w3.org/2000/svg"><defs
   id="defs14" /><sodipodi:namedview
   id="namedview12"
   pagecolor="#ffffff"
   bordercolor="#000000"
   borderopacity="0.25"
   inkscape:showpageshadow="2"
   inkscape:pageopacity="0.0"
   inkscape:pagecheckerboard="0"
   inkscape:deskcolor="#d1d1d1"
   showgrid="false"
   inkscape:zoom="1.8179825"
   inkscape:cx="276.4053"
   inkscape:cy="299.2328"
   inkscape:window-width="1920"
   inkscape:window-height="1009"
   inkscape:window-x="1917"
   inkscape:window-y="-8"
   inkscape:window-maximized="1"
   inkscape:current-layer="svg10" />
    
    
    
    
<path
   style="fill:#999999;fill-opacity:1;stroke:none;stroke-width:3.77998;stroke-dasharray:none;stroke-opacity:1"
   d="m 54.76106,198.53798 c 0,0 -12.180334,-16.96249 -3.843738,-30.74986 8.336615,-13.78737 49.029997,-25.76344 61.499718,-23.06238 12.46973,2.70105 7.68747,7.68746 7.68747,7.68746 z"
   id="path2909"
   sodipodi:nodetypes="czzcc" /><path
   style="fill:#999999;fill-opacity:1;stroke:none;stroke-width:3.77998;stroke-dasharray:none;stroke-opacity:1"
   d="m 401.23896,198.53798 c 0,0 12.18031,-16.96249 3.84371,-30.74986 -8.33659,-13.78737 -49.02999,-25.76344 -61.4997,-23.06238 -12.46973,2.70105 -7.68747,7.68746 -7.68747,7.68746 z"
   id="path2909-4"
   sodipodi:nodetypes="czzcc" /><path
   style="fill:#cccccc;stroke:none;stroke-width:0.999999;stroke-dasharray:none;stroke-opacity:1"
   d="m 112.38252,148.56946 c -13.591963,2.38386 -27.496634,6.05748 -38.437328,15.37493 -10.940692,9.31746 -19.073937,24.03774 -23.06239,38.43732 -3.420065,12.34754 -3.420065,26.08979 0,38.43733 3.988453,14.39959 11.527675,28.93964 23.06239,38.43732 11.62354,9.57082 28.673818,15.37493 42.473248,15.37493 29.41294,-2.25825 50.18434,-30.46418 72.83872,-38.43733 12.28402,-4.06802 25.68942,-3.85014 38.62951,-3.84372 12.81261,0.007 26.08415,-0.19026 38.24514,3.84372 26.58113,10.35051 50.34523,37.78195 77.06682,38.43733 13.79941,0 27.79228,-6.4573 38.24514,-15.37493 11.36715,-9.69762 19.07395,-24.03773 23.06241,-38.43732 3.42009,-12.34754 3.42009,-26.08979 0,-38.43733 -3.98846,-14.39958 -11.68689,-28.74954 -23.06241,-38.43732 -10.50585,-8.94713 -24.8452,-12.99183 -38.4373,-15.37493 -37.81778,-6.63056 -76.72515,3.8416 -115.1198,3.84374 -38.5227,0.002 -77.5606,-10.49851 -115.50415,-3.84374 z"
   id="path1299"
   sodipodi:nodetypes="azaaaccaccaaaaaaa"
   inkscape:label="Body" /><rect
   style="fill:#000000;stroke:none;stroke-width:3.78002;stroke-dasharray:none;stroke-opacity:1"
   id="rect2041"
   width="22.678019"
   height="11.146822"
   x="197.32901"
   y="206.60983"
   rx="9.500001"
   ry="20"
   inkscape:label="SELECT" /><rect
   style="fill:#000000;stroke:none;stroke-width:3.78002;stroke-dasharray:none;stroke-opacity:1"
   id="rect2041-6"
   width="22.678019"
   height="11.146822"
   x="235.76631"
   y="206.60983"
   rx="9.500001"
   ry="20"
   inkscape:label="START" /><ellipse
   style="fill:#ecf709;fill-opacity:1;stroke:none;stroke-width:3.78002;stroke-dasharray:none;stroke-opacity:1"
   id="path2169"
   cx="343.39084"
   cy="191.04266"
   inkscape:label="Y"
   rx="15.37493"
   ry="15.374928" /><ellipse
   style="fill:#49ff39;fill-opacity:1;stroke:none;stroke-width:3.78002;stroke-dasharray:none;stroke-opacity:1"
   id="path2169-8"
   cx="343.39084"
   cy="244.85495"
   inkscape:label="A"
   rx="15.37493"
   ry="15.374928" /><ellipse
   style="fill:#3333ff;fill-opacity:1;stroke:none;stroke-width:3.78002;stroke-dasharray:none;stroke-opacity:1"
   id="path2169-8-7"
   cx="316.48471"
   cy="217.94882"
   inkscape:label="X"
   rx="15.37493"
   ry="15.374928" /><ellipse
   style="fill:#ff2525;fill-opacity:1;stroke:none;stroke-width:3.78002;stroke-dasharray:none;stroke-opacity:1"
   id="path2169-8-7-5"
   cx="370.29694"
   cy="217.94882"
   inkscape:label="B"
   rx="15.37493"
   ry="15.374928" /><rect
   style="fill:#000000;stroke:none;stroke-width:3.78002;stroke-dasharray:none;stroke-opacity:1"
   id="rect2298"
   width="22.698633"
   height="34.338963"
   x="105.40682"
   y="171.63187"
   rx="4.7499962"
   ry="4.7499962"
   inkscape:label="Dpad_up" /><rect
   style="fill:#000000;stroke:none;stroke-width:3.78002;stroke-dasharray:none;stroke-opacity:1"
   id="rect2298-4"
   width="22.698633"
   height="34.338963"
   x="105.40682"
   y="229.54245"
   rx="4.9999952"
   ry="4.9999952"
   inkscape:label="Dpad_down" /><rect
   style="fill:#000000;stroke:none;stroke-width:3.78002;stroke-dasharray:none;stroke-opacity:1"
   id="rect2298-4-0"
   width="22.698633"
   height="34.338959"
   x="-229.25146"
   y="70.485832"
   rx="4.4999995"
   ry="4.4999995"
   transform="rotate(-90)"
   inkscape:label="Dpad_left" /><rect
   style="fill:#000000;stroke:none;stroke-width:3.78002;stroke-dasharray:none;stroke-opacity:1"
   id="rect2298-4-0-4"
   width="22.698633"
   height="34.338959"
   x="-229.25146"
   y="128.39645"
   rx="4.7499986"
   ry="4.7499986"
   transform="rotate(-90)"
   inkscape:label="Dpad_right" /><rect
   style="fill:#000000;stroke:none;stroke-width:3.77998;stroke-dasharray:none;stroke-opacity:1"
   id="rect2298-4-0-4-1"
   width="46.56131"
   height="45.979267"
   x="-241.18277"
   y="93.766495"
   rx="25.094652"
   ry="24.466082"
   transform="rotate(-90)"
   inkscape:label="Dpad_center" /><path
   style="fill:#f9f9f9;fill-opacity:1;stroke:none;stroke-width:3.77998;stroke-dasharray:none;stroke-opacity:1"
   d="m 116.89891,173.55372 -8.64841,11.5312 c 0,0 17.29681,0 17.29681,0 z"
   id="path3919"
   inkscape:label="Up" /><path
   style="fill:#f9f9f9;fill-opacity:1;stroke:none;stroke-width:3.77998;stroke-dasharray:none;stroke-opacity:1"
   d="m 116.89891,261.95956 -8.64841,-11.53119 c 0,0 17.29681,0 17.29681,0 z"
   id="path3919-2"
   inkscape:label="Down" /><path
   style="fill:#f9f9f9;fill-opacity:1;stroke:none;stroke-width:3.77998;stroke-dasharray:none;stroke-opacity:1"
   d="m 160.62136,217.27618 -11.5312,8.64839 c 0,0 0,-17.2968 0,-17.2968 z"
   id="path3919-2-4"
   inkscape:label="Right" /><path
   style="fill:#f9f9f9;fill-opacity:1;stroke:none;stroke-width:3.77998;stroke-dasharray:none;stroke-opacity:1"
   d="m 72.215512,217.27618 11.531206,8.64839 c 0,0 0,-17.2968 0,-17.2968 z"
   id="path3919-2-4-8"
   inkscape:label="Left" /></svg>
