<?xml version="1.0" encoding="UTF-8" standalone="no"?>
<svg
   width="456"
   height="456"
   viewBox="0 0 456 456"
   version="1.1"
   xml:space="preserve"
   style="fill-rule:evenodd;clip-rule:evenodd;stroke-linejoin:round;stroke-miterlimit:2;"
   id="svg10"
   sodipodi:docname="splash.svg"
   inkscape:version="1.2.2 (732a01da63, 2022-12-09)"
   xmlns:inkscape="http://www.inkscape.org/namespaces/inkscape"
   xmlns:sodipodi="http://sodipodi.sourceforge.net/DTD/sodipodi-0.dtd"
   xmlns="http://www.w3.org/2000/svg"
   xmlns:svg="http://www.w3.org/2000/svg"><defs
   id="defs14" /><sodipodi:namedview
   id="namedview12"
   pagecolor="#ffffff"
   bordercolor="#000000"
   borderopacity="0.25"
   inkscape:showpageshadow="2"
   inkscape:pageopacity="0.0"
   inkscape:pagecheckerboard="0"
   inkscape:deskcolor="#d1d1d1"
   showgrid="false"
   inkscape:zoom="1.8179825"
   inkscape:cx="234.87575"
   inkscape:cy="253.5778"
   inkscape:window-width="1920"
   inkscape:window-height="1009"
   inkscape:window-x="1917"
   inkscape:window-y="-8"
   inkscape:window-maximized="1"
   inkscape:current-layer="svg10" />
    
    
    
    
<text
   xml:space="preserve"
   style="font-size:48.0497px;clip-rule:evenodd;fill:#ff0000;fill-rule:evenodd;stroke-width:0.563078;stroke-linejoin:round;stroke-miterlimit:2"
   x="28.00016"
   y="329.9971"
   id="text228-5"><tspan
     sodipodi:role="line"
     id="tspan226-4"
     x="28.00016"
     y="329.9971"
     style="font-style:normal;font-variant:normal;font-weight:bold;font-stretch:normal;font-size:48.0497px;font-family:Arial;-inkscape-font-specification:'Arial Bold';fill:#ffffff;stroke-width:0.563078">A .NET MAUI APP</tspan></text><g
   id="g950"
   transform="translate(33.278652,-131.48612)"><path
     style="clip-rule:evenodd;fill:#999999;fill-opacity:1;fill-rule:evenodd;stroke:none;stroke-width:3.77998;stroke-linejoin:round;stroke-miterlimit:2;stroke-dasharray:none;stroke-opacity:1"
     d="m 21.482407,308.53733 c 0,0 -12.180334,-16.96249 -3.843738,-30.74986 8.336615,-13.78737 49.029997,-25.76344 61.499718,-23.06238 12.46973,2.70105 7.68747,7.68746 7.68747,7.68746 z"
     id="path2909"
     sodipodi:nodetypes="czzcc" /><path
     style="clip-rule:evenodd;fill:#999999;fill-opacity:1;fill-rule:evenodd;stroke:none;stroke-width:3.77998;stroke-linejoin:round;stroke-miterlimit:2;stroke-dasharray:none;stroke-opacity:1"
     d="m 367.96031,308.53733 c 0,0 12.18031,-16.96249 3.84371,-30.74986 -8.33659,-13.78737 -49.02999,-25.76344 -61.4997,-23.06238 -12.46973,2.70105 -7.68747,7.68746 -7.68747,7.68746 z"
     id="path2909-4"
     sodipodi:nodetypes="czzcc" /><path
     style="clip-rule:evenodd;fill:#cccccc;fill-rule:evenodd;stroke:none;stroke-width:0.999999;stroke-linejoin:round;stroke-miterlimit:2;stroke-dasharray:none;stroke-opacity:1"
     d="m 79.103867,258.56881 c -13.591963,2.38386 -27.496634,6.05748 -38.437328,15.37493 -10.940692,9.31746 -19.073937,24.03774 -23.06239,38.43732 -3.420065,12.34754 -3.420065,26.08979 0,38.43733 3.988453,14.39959 11.527675,28.93964 23.06239,38.43732 11.62354,9.57082 28.673818,15.37493 42.473248,15.37493 29.412943,-2.25825 50.184343,-30.46418 72.838723,-38.43733 12.28402,-4.06802 25.68942,-3.85014 38.62951,-3.84372 12.81261,0.007 26.08415,-0.19026 38.24514,3.84372 26.58113,10.35051 50.34523,37.78195 77.06682,38.43733 13.79941,0 27.79228,-6.4573 38.24514,-15.37493 11.36715,-9.69762 19.07395,-24.03773 23.06241,-38.43732 3.42009,-12.34754 3.42009,-26.08979 0,-38.43733 -3.98846,-14.39958 -11.68689,-28.74954 -23.06241,-38.43732 -10.50585,-8.94713 -24.8452,-12.99183 -38.4373,-15.37493 -37.81778,-6.63056 -76.72515,3.8416 -115.1198,3.84374 -38.5227,0.002 -77.5606,-10.49851 -115.504153,-3.84374 z"
     id="path1299"
     sodipodi:nodetypes="azaaaccaccaaaaaaa"
     inkscape:label="Body" /><rect
     style="clip-rule:evenodd;fill:#000000;fill-rule:evenodd;stroke:none;stroke-width:3.78002;stroke-linejoin:round;stroke-miterlimit:2;stroke-dasharray:none;stroke-opacity:1"
     id="rect2041"
     width="22.678019"
     height="11.146822"
     x="164.05035"
     y="316.60919"
     rx="9.500001"
     ry="20"
     inkscape:label="SELECT" /><rect
     style="clip-rule:evenodd;fill:#000000;fill-rule:evenodd;stroke:none;stroke-width:3.78002;stroke-linejoin:round;stroke-miterlimit:2;stroke-dasharray:none;stroke-opacity:1"
     id="rect2041-6"
     width="22.678019"
     height="11.146822"
     x="202.48766"
     y="316.60919"
     rx="9.500001"
     ry="20"
     inkscape:label="START" /><ellipse
     style="clip-rule:evenodd;fill:#ecf709;fill-opacity:1;fill-rule:evenodd;stroke:none;stroke-width:3.78002;stroke-linejoin:round;stroke-miterlimit:2;stroke-dasharray:none;stroke-opacity:1"
     id="path2169"
     cx="310.11218"
     cy="301.04202"
     inkscape:label="Y"
     rx="15.37493"
     ry="15.374928" /><ellipse
     style="clip-rule:evenodd;fill:#49ff39;fill-opacity:1;fill-rule:evenodd;stroke:none;stroke-width:3.78002;stroke-linejoin:round;stroke-miterlimit:2;stroke-dasharray:none;stroke-opacity:1"
     id="path2169-8"
     cx="310.11218"
     cy="354.85431"
     inkscape:label="A"
     rx="15.37493"
     ry="15.374928" /><ellipse
     style="clip-rule:evenodd;fill:#3333ff;fill-opacity:1;fill-rule:evenodd;stroke:none;stroke-width:3.78002;stroke-linejoin:round;stroke-miterlimit:2;stroke-dasharray:none;stroke-opacity:1"
     id="path2169-8-7"
     cx="283.20605"
     cy="327.94818"
     inkscape:label="X"
     rx="15.37493"
     ry="15.374928" /><ellipse
     style="clip-rule:evenodd;fill:#ff2525;fill-opacity:1;fill-rule:evenodd;stroke:none;stroke-width:3.78002;stroke-linejoin:round;stroke-miterlimit:2;stroke-dasharray:none;stroke-opacity:1"
     id="path2169-8-7-5"
     cx="337.01828"
     cy="327.94818"
     inkscape:label="B"
     rx="15.37493"
     ry="15.374928" /><rect
     style="clip-rule:evenodd;fill:#000000;fill-rule:evenodd;stroke:none;stroke-width:3.78002;stroke-linejoin:round;stroke-miterlimit:2;stroke-dasharray:none;stroke-opacity:1"
     id="rect2298"
     width="22.698633"
     height="34.338963"
     x="72.128166"
     y="281.63123"
     rx="4.7499962"
     ry="4.7499962"
     inkscape:label="Dpad_up" /><rect
     style="clip-rule:evenodd;fill:#000000;fill-rule:evenodd;stroke:none;stroke-width:3.78002;stroke-linejoin:round;stroke-miterlimit:2;stroke-dasharray:none;stroke-opacity:1"
     id="rect2298-4"
     width="22.698633"
     height="34.338963"
     x="72.128166"
     y="339.54181"
     rx="4.9999952"
     ry="4.9999952"
     inkscape:label="Dpad_down" /><rect
     style="clip-rule:evenodd;fill:#000000;fill-rule:evenodd;stroke:none;stroke-width:3.78002;stroke-linejoin:round;stroke-miterlimit:2;stroke-dasharray:none;stroke-opacity:1"
     id="rect2298-4-0"
     width="22.698633"
     height="34.338959"
     x="-339.25082"
     y="37.20718"
     rx="4.4999995"
     ry="4.4999995"
     transform="rotate(-90)"
     inkscape:label="Dpad_left" /><rect
     style="clip-rule:evenodd;fill:#000000;fill-rule:evenodd;stroke:none;stroke-width:3.78002;stroke-linejoin:round;stroke-miterlimit:2;stroke-dasharray:none;stroke-opacity:1"
     id="rect2298-4-0-4"
     width="22.698633"
     height="34.338959"
     x="-339.25082"
     y="95.117798"
     rx="4.7499986"
     ry="4.7499986"
     transform="rotate(-90)"
     inkscape:label="Dpad_right" /><rect
     style="clip-rule:evenodd;fill:#000000;fill-rule:evenodd;stroke:none;stroke-width:3.77998;stroke-linejoin:round;stroke-miterlimit:2;stroke-dasharray:none;stroke-opacity:1"
     id="rect2298-4-0-4-1"
     width="46.56131"
     height="45.979267"
     x="-351.18213"
     y="60.487843"
     rx="25.094652"
     ry="24.466082"
     transform="rotate(-90)"
     inkscape:label="Dpad_center" /><path
     style="clip-rule:evenodd;fill:#f9f9f9;fill-opacity:1;fill-rule:evenodd;stroke:none;stroke-width:3.77998;stroke-linejoin:round;stroke-miterlimit:2;stroke-dasharray:none;stroke-opacity:1"
     d="m 83.620257,283.55307 -8.64841,11.5312 c 0,0 17.29681,0 17.29681,0 z"
     id="path3919"
     inkscape:label="Up" /><path
     style="clip-rule:evenodd;fill:#f9f9f9;fill-opacity:1;fill-rule:evenodd;stroke:none;stroke-width:3.77998;stroke-linejoin:round;stroke-miterlimit:2;stroke-dasharray:none;stroke-opacity:1"
     d="m 83.620257,371.95891 -8.64841,-11.53119 c 0,0 17.29681,0 17.29681,0 z"
     id="path3919-2"
     inkscape:label="Down" /><path
     style="clip-rule:evenodd;fill:#f9f9f9;fill-opacity:1;fill-rule:evenodd;stroke:none;stroke-width:3.77998;stroke-linejoin:round;stroke-miterlimit:2;stroke-dasharray:none;stroke-opacity:1"
     d="m 127.34271,327.27553 -11.5312,8.64839 c 0,0 0,-17.2968 0,-17.2968 z"
     id="path3919-2-4"
     inkscape:label="Right" /><path
     style="clip-rule:evenodd;fill:#f9f9f9;fill-opacity:1;fill-rule:evenodd;stroke:none;stroke-width:3.77998;stroke-linejoin:round;stroke-miterlimit:2;stroke-dasharray:none;stroke-opacity:1"
     d="m 38.936859,327.27553 11.531206,8.64839 c 0,0 0,-17.2968 0,-17.2968 z"
     id="path3919-2-4-8"
     inkscape:label="Left" /></g></svg>
