<?xml version="1.0" encoding="UTF-8" standalone="no"?>
<!-- Created with Inkscape (http://www.inkscape.org/) -->

<svg
   width="500"
   height="250"
   viewBox="0 0 132.29167 66.145832"
   version="1.1"
   id="svg5"
   inkscape:version="1.2.2 (732a01da63, 2022-12-09)"
   sodipodi:docname="body.svg"
   xmlns:inkscape="http://www.inkscape.org/namespaces/inkscape"
   xmlns:sodipodi="http://sodipodi.sourceforge.net/DTD/sodipodi-0.dtd"
   xmlns="http://www.w3.org/2000/svg"
   xmlns:svg="http://www.w3.org/2000/svg">
  <sodipodi:namedview
     id="namedview7"
     pagecolor="#ffffff"
     bordercolor="#000000"
     borderopacity="0.25"
     inkscape:showpageshadow="2"
     inkscape:pageopacity="0.0"
     inkscape:pagecheckerboard="0"
     inkscape:deskcolor="#d1d1d1"
     inkscape:document-units="px"
     showgrid="true"
     inkscape:zoom="2.0888419"
     inkscape:cx="184.79139"
     inkscape:cy="138.35418"
     inkscape:window-width="1920"
     inkscape:window-height="1009"
     inkscape:window-x="1917"
     inkscape:window-y="-8"
     inkscape:window-maximized="1"
     inkscape:current-layer="layer1"
     showguides="false">
    <inkscape:grid
       type="xygrid"
       id="grid136"
       originx="0"
       originy="0" />
  </sodipodi:namedview>
  <g
     inkscape:groupmode="layer"
     id="layer4"
     inkscape:label="Trigger"
     style="display:none">
    <path
       style="fill:#999999;fill-opacity:1;stroke:none;stroke-width:1.00012;stroke-dasharray:none;stroke-opacity:1"
       d="m 6.5603207,25.135417 c 0,0 -4.1921676,-5.838065 -1.3229166,-10.583334 C 8.1066551,9.8068142 22.112303,5.684948 26.40407,6.6145839 c 4.291767,0.9296359 2.645834,2.6458327 2.645834,2.6458327 z"
       id="path2909"
       sodipodi:nodetypes="czzcc" />
    <path
       style="fill:#999999;fill-opacity:1;stroke:none;stroke-width:1.00012;stroke-dasharray:none;stroke-opacity:1"
       d="m 125.80936,25.135417 c 0,0 4.19216,-5.838065 1.32291,-10.583334 -2.86925,-4.7452688 -16.8749,-8.867135 -21.16666,-7.9374991 -4.29177,0.9296359 -2.64584,2.6458327 -2.64584,2.6458327 z"
       id="path2909-4"
       sodipodi:nodetypes="czzcc" />
  </g>
  <g
     inkscape:label="Body"
     inkscape:groupmode="layer"
     id="layer1">
    <path
       style="fill:#cccccc;stroke:none;stroke-width:0.264583;stroke-dasharray:none;stroke-opacity:1"
       d="m 26.392188,7.9374999 c -4.678013,0.820459 -9.463655,2.0848311 -13.229167,5.2916671 -3.765512,3.206836 -6.564774,8.273189 -7.9375,13.229166 -1.177103,4.249715 -1.177103,8.979452 0,13.229167 1.372726,4.955976 3.9675373,9.960301 7.9375,13.229166 4.000532,3.294036 9.868813,5.291667 14.618229,5.291667 10.123197,-0.777232 17.272197,-10.485008 25.069271,-13.229167 4.227851,-1.400116 8.841657,-1.325121 13.295312,-1.322916 4.409777,0.0022 8.977511,-0.06548 13.163021,1.322916 9.148559,3.562384 17.327566,13.003606 26.524476,13.229167 4.74941,-1e-6 9.56541,-2.222442 13.16302,-5.291667 3.91229,-3.337681 6.56478,-8.273189 7.93751,-13.229166 1.1771,-4.249715 1.1771,-8.979452 0,-13.229167 -1.37273,-4.955977 -4.02234,-9.894874 -7.93751,-13.229166 C 115.3805,10.149789 110.44525,8.7576994 105.76719,7.9374999 92.751254,5.6554272 79.360312,9.2596834 66.145833,9.2604167 52.887283,9.2611525 39.451407,5.6470927 26.392188,7.9374999 Z"
       id="path1299"
       sodipodi:nodetypes="azaaaccaccaaaaaaa"
       inkscape:label="Body" />
  </g>
  <g
     inkscape:groupmode="layer"
     id="layer3"
     inkscape:label="Buttons"
     style="display:inline;stroke:none;stroke-width:1.00013;stroke-dasharray:none">
    <rect
       style="display:none;fill:#000000;stroke:none;stroke-width:1.00013;stroke-dasharray:none;stroke-opacity:1"
       id="rect2041"
       width="7.8052077"
       height="3.836458"
       x="55.628647"
       y="27.91354"
       rx="2.5135419"
       ry="5.2916665"
       inkscape:label="SELECT" />
    <rect
       style="display:none;fill:#000000;stroke:none;stroke-width:1.00013;stroke-dasharray:none;stroke-opacity:1"
       id="rect2041-6"
       width="7.8052077"
       height="3.836458"
       x="68.857811"
       y="27.91354"
       rx="2.5135419"
       ry="5.2916665"
       inkscape:label="START" />
    <ellipse
       style="display:none;fill:#ecf709;fill-opacity:1;stroke:none;stroke-width:1.00013;stroke-dasharray:none;stroke-opacity:1"
       id="path2169"
       cx="105.89948"
       cy="22.555727"
       inkscape:label="Y"
       rx="5.2916665"
       ry="5.291666" />
    <ellipse
       style="display:none;fill:#49ff39;fill-opacity:1;stroke:none;stroke-width:1.00013;stroke-dasharray:none;stroke-opacity:1"
       id="path2169-8"
       cx="105.89948"
       cy="41.076561"
       inkscape:label="A"
       rx="5.2916665"
       ry="5.291666" />
    <ellipse
       style="display:none;fill:#3333ff;fill-opacity:1;stroke:none;stroke-width:1.00013;stroke-dasharray:none;stroke-opacity:1"
       id="path2169-8-7"
       cx="96.639061"
       cy="31.816145"
       inkscape:label="X"
       rx="5.2916665"
       ry="5.291666" />
    <ellipse
       style="display:none;fill:#ff2525;fill-opacity:1;stroke:none;stroke-width:1.00013;stroke-dasharray:none;stroke-opacity:1"
       id="path2169-8-7-5"
       cx="115.1599"
       cy="31.816145"
       inkscape:label="B"
       rx="5.2916665"
       ry="5.291666" />
    <rect
       style="display:inline;fill:#000000;stroke:none;stroke-width:1.00013;stroke-dasharray:none;stroke-opacity:1"
       id="rect2298"
       width="7.8123026"
       height="11.818612"
       x="23.991323"
       y="15.875"
       rx="1.2567699"
       ry="1.2567699"
       inkscape:label="Dpad_up" />
    <rect
       style="fill:#000000;stroke:none;stroke-width:1.00013;stroke-dasharray:none;stroke-opacity:1"
       id="rect2298-4"
       width="7.8123026"
       height="11.818612"
       x="23.991323"
       y="35.806389"
       rx="1.3229154"
       ry="1.3229154"
       inkscape:label="Dpad_down" />
    <rect
       style="fill:#000000;stroke:none;stroke-width:1.00013;stroke-dasharray:none;stroke-opacity:1"
       id="rect2298-4-0"
       width="7.8123026"
       height="11.818611"
       x="-35.70623"
       y="11.972396"
       rx="1.190625"
       ry="1.190625"
       transform="rotate(-90)"
       inkscape:label="Dpad_left" />
    <rect
       style="fill:#000000;stroke:none;stroke-width:1.00013;stroke-dasharray:none;stroke-opacity:1"
       id="rect2298-4-0-4"
       width="7.8123026"
       height="11.818611"
       x="-35.70623"
       y="31.903784"
       rx="1.2567705"
       ry="1.2567705"
       transform="rotate(-90)"
       inkscape:label="Dpad_right" />
    <rect
       style="fill:#000000;stroke:none;stroke-width:1.00012;stroke-dasharray:none;stroke-opacity:1"
       id="rect2298-4-0-4-1"
       width="16.025238"
       height="15.824916"
       x="-39.812695"
       y="19.985016"
       rx="6.639627"
       ry="6.4733176"
       transform="rotate(-90)"
       inkscape:label="Dpad_center" />
    <path
       style="display:none;fill:#f9f9f9;fill-opacity:1;stroke:none;stroke-width:1.00012;stroke-dasharray:none;stroke-opacity:1"
       d="m 27.946614,16.536458 -2.976562,3.96875 c 0,0 5.953126,0 5.953126,0 z"
       id="path3919"
       inkscape:label="Up" />
    <path
       style="display:none;fill:#f9f9f9;fill-opacity:1;stroke:none;stroke-width:1.00012;stroke-dasharray:none;stroke-opacity:1"
       d="m 27.946614,46.963542 -2.976562,-3.96875 c 0,0 5.953126,0 5.953126,0 z"
       id="path3919-2"
       inkscape:label="Down" />
    <path
       style="display:none;fill:#f9f9f9;fill-opacity:1;stroke:none;stroke-width:1.00012;stroke-dasharray:none;stroke-opacity:1"
       d="m 42.994792,31.584636 -3.96875,2.976562 c 0,0 0,-5.953126 0,-5.953126 z"
       id="path3919-2-4"
       inkscape:label="Right" />
    <path
       style="display:none;fill:#f9f9f9;fill-opacity:1;stroke:none;stroke-width:1.00012;stroke-dasharray:none;stroke-opacity:1"
       d="m 12.567708,31.584636 3.96875,2.976562 c 0,0 0,-5.953126 0,-5.953126 z"
       id="path3919-2-4-8"
       inkscape:label="Left" />
  </g>
</svg>
